<svg width="166" height="48" viewBox="0 0 166 48" fill="none" xmlns="http://www.w3.org/2000/svg">
<path fill-rule="evenodd" clip-rule="evenodd" d="M6.86493 7.2692C5.48734 7.48991 4.13369 8.19815 3.15808 9.20875C1.90663 10.505 0.683548 13.0163 0.233751 15.2127C0.0540082 16.0904 -0.0633824 17.7289 0.0367334 17.9626C0.0716855 18.0442 0.0922551 18.2189 0.0824524 18.3509C0.06582 18.5752 0.0720869 18.5809 0.179193 18.4388C0.289594 18.2922 0.317395 18.2992 0.948783 18.634C1.30907 18.8251 1.60387 19.0023 1.60387 19.0278C1.60387 19.0533 1.7395 19.145 1.90519 19.2315C2.07095 19.3181 2.22458 19.4106 2.24667 19.437C2.26877 19.4634 2.5839 19.6402 2.94692 19.8297C3.30994 20.0193 3.5857 20.2088 3.55959 20.2508C3.53154 20.2959 3.58184 20.3051 3.68292 20.2732C3.77854 20.243 3.85367 20.2541 3.85367 20.2984C3.85367 20.3419 3.97146 20.4163 4.11545 20.4635C4.25935 20.5108 4.47678 20.6414 4.59851 20.7537C4.72024 20.8661 4.84783 20.9407 4.88214 20.9197C4.91645 20.8986 5.17646 21.0047 5.45994 21.1554C5.74349 21.3061 6.00784 21.4295 6.04738 21.4295C6.08699 21.4295 6.2333 21.4799 6.37255 21.5415C6.5118 21.603 7.00538 21.7677 7.4694 21.9074C7.93342 22.0471 8.48262 22.2126 8.68976 22.2752C8.8969 22.3378 9.11151 22.3891 9.16655 22.3891C9.22167 22.3891 9.41459 22.4603 9.5953 22.5474C9.99761 22.7413 10.6977 22.9566 10.6439 22.87C10.6223 22.8352 10.7037 22.7892 10.8248 22.7676C10.9459 22.746 11.3493 22.6495 11.7212 22.5533C12.0931 22.4571 12.4848 22.4003 12.5917 22.4269C12.7006 22.4541 12.7661 22.4434 12.7407 22.4025C12.6307 22.2255 15.3038 22.0108 15.6838 22.1662C15.7671 22.2002 15.8041 22.2723 15.7758 22.3456C15.7498 22.413 15.6963 22.4483 15.6566 22.4239C15.6171 22.3996 15.5847 22.4178 15.5847 22.4643C15.5847 22.5109 15.5124 22.549 15.424 22.549C15.3356 22.549 15.2633 22.585 15.2633 22.629C15.2633 22.673 15.1774 22.709 15.0723 22.709C14.9672 22.709 14.8342 22.7654 14.7766 22.8345C14.719 22.9035 14.6061 22.9429 14.5256 22.9219C14.4451 22.901 14.3951 22.9093 14.4144 22.9404C14.4337 22.9715 14.2801 23.0431 14.073 23.0995C13.866 23.156 13.6242 23.2325 13.5358 23.2696C13.4474 23.3066 13.3209 23.3528 13.2546 23.372C13.1708 23.3964 13.2135 23.453 13.3947 23.5578C13.5381 23.6407 13.6555 23.7523 13.6559 23.806C13.6561 23.8596 13.7104 23.8828 13.7769 23.8574C13.8431 23.8321 13.8974 23.8512 13.8974 23.8999C13.8974 23.9508 14.0423 23.988 14.2389 23.9875C15.0653 23.9853 19.0432 24.4068 19.542 24.5494C19.7077 24.5968 19.8433 24.6699 19.8433 24.7118C19.8433 24.7537 19.8839 24.7791 19.9337 24.768C19.9834 24.7571 20.0425 24.7988 20.0651 24.8607C20.0931 24.9373 20.0659 24.958 19.9807 24.9255C19.9116 24.8991 19.8118 24.9293 19.759 24.9927C19.6259 25.1523 16.8702 25.1492 15.5044 24.988C14.952 24.9228 14.4945 24.869 14.4878 24.8687C14.481 24.8683 14.4388 24.973 14.3938 25.1014C14.2594 25.4849 14.3928 25.5614 15.3035 25.6234C15.7454 25.6535 16.3963 25.7131 16.7498 25.7559C17.1033 25.7986 17.5734 25.8508 17.7943 25.872C18.5917 25.9484 19.4661 26.0807 19.6614 26.1546C19.9848 26.277 19.7505 26.4415 19.0963 26.5513C18.5125 26.6492 16.5554 26.6166 16.1472 26.502C16.0367 26.471 15.5103 26.4236 14.9774 26.3965L14.0084 26.3474L14.0829 26.7211C14.1411 27.0135 14.185 27.0842 14.2844 27.0462C14.3673 27.0146 14.378 26.9866 14.3151 26.9657C14.2622 26.9481 14.2188 26.8986 14.2188 26.8558C14.2188 26.8128 14.2588 26.8024 14.3076 26.8324C14.3566 26.8625 14.5644 26.8857 14.7697 26.8841C14.9749 26.8824 15.0816 26.9049 15.0068 26.9341C14.932 26.9632 15.1991 26.9929 15.6004 27.0001C16.0017 27.0073 16.3523 27.0491 16.3795 27.0931C16.4069 27.137 16.7002 27.1891 17.0314 27.2087C18.11 27.2727 19.6022 27.5439 19.6022 27.6759C19.6022 27.7162 19.4847 27.8208 19.3411 27.9083C19.1042 28.0528 18.968 28.0648 17.8747 28.0378C16.7194 28.0093 15.6446 27.8872 15.3035 27.7459C15.2151 27.7092 14.8265 27.6582 14.4397 27.6325C13.7971 27.5899 13.7367 27.5983 13.7367 27.7309C13.7367 27.8672 14.214 28.1466 14.4467 28.1466C14.4981 28.1466 14.5402 28.1749 14.5402 28.2094C14.5402 28.244 14.6034 28.2766 14.6808 28.2819C14.9169 28.2983 16.2978 28.8176 16.2614 28.8763C16.2426 28.9065 16.2943 28.9139 16.3762 28.8925C16.458 28.8713 16.582 28.9106 16.6517 28.9799C16.7214 29.0494 16.8263 29.1065 16.8847 29.1069C17.0541 29.1081 17.8345 29.4911 17.8345 29.5729C17.8345 29.7354 17.2438 29.794 16.8359 29.6721C16.7001 29.6316 16.3581 29.5571 16.0757 29.5068C15.7933 29.4564 15.5121 29.3651 15.4507 29.304C15.3892 29.2429 15.288 29.2124 15.2256 29.2362C15.087 29.2891 11.0621 28.0421 10.8883 27.8924C10.8463 27.8563 10.7416 27.8267 10.6555 27.8267C10.4509 27.8267 8.97829 27.3581 8.87954 27.2616C8.83752 27.2206 8.72005 27.187 8.61841 27.187C8.51676 27.187 8.4336 27.151 8.4336 27.107C8.4336 27.063 8.36611 27.0271 8.28359 27.0271C8.12867 27.0271 7.29955 26.7122 7.22836 26.6263C7.20626 26.5997 6.97124 26.5311 6.70608 26.4739C6.44093 26.4167 6.16975 26.3511 6.10346 26.3281C6.03717 26.305 5.91062 26.2764 5.82224 26.2643C5.73385 26.2524 5.40843 26.1597 5.09909 26.0584C4.78974 25.957 4.50956 25.8817 4.47638 25.8908C4.44327 25.9 4.41611 25.8716 4.41611 25.8276C4.41611 25.7836 4.34597 25.7476 4.26016 25.7476C4.17434 25.7476 4.08411 25.7152 4.05952 25.6756C4.03494 25.6361 3.88717 25.6037 3.73121 25.6037C3.57517 25.6037 3.40154 25.5657 3.34529 25.5192C3.22541 25.4202 2.56807 25.3028 2.56807 25.3803C2.56807 25.5483 4.00601 27.4837 4.89002 28.5058C8.35751 32.5146 14.3393 37.0067 20.4467 40.1884L21.5933 40.7858L22.7873 39.8345C25.2877 37.8424 27.6978 35.6778 29.8483 33.4926C31.7052 31.6057 33.7353 29.3108 33.6354 29.2114C33.6087 29.185 33.5398 29.2023 33.4821 29.2499C33.4244 29.2976 33.2868 29.3528 33.1763 29.3728C33.0659 29.3927 32.835 29.4876 32.6633 29.5835C32.4916 29.6795 32.1492 29.8319 31.9025 29.9222C31.6557 30.0125 31.3996 30.1302 31.3333 30.1838C31.2324 30.2655 31.0233 30.3619 30.8512 30.4063C30.8291 30.412 30.7409 30.4816 30.6552 30.561C30.5696 30.6404 30.4521 30.7054 30.3941 30.7054C30.3361 30.7054 30.2887 30.7414 30.2887 30.7854C30.2887 30.8294 30.237 30.8654 30.1737 30.8654C30.0383 30.8654 29.0556 31.3577 29.0166 31.4451C29.0018 31.478 28.9205 31.5051 28.8358 31.5051C28.7511 31.5051 28.6817 31.5411 28.6817 31.585C28.6817 31.629 28.6068 31.665 28.5153 31.665C28.4237 31.665 28.2943 31.7193 28.2276 31.7857C28.1609 31.852 28.0731 31.886 28.0324 31.8609C27.9919 31.836 27.9586 31.8536 27.9586 31.9002C27.9586 31.9467 27.8863 31.9849 27.7979 31.9849C27.7095 31.9849 27.6372 32.0121 27.6372 32.0453C27.6372 32.0786 27.5197 32.1552 27.3761 32.2156C27.1261 32.3209 26.3605 32.6915 26.0549 32.8552C25.9751 32.898 25.738 32.9986 25.5283 33.0787C25.3185 33.1587 25.1468 33.2513 25.1467 33.2843C25.1465 33.3173 25.1125 33.3443 25.0712 33.3443C25.0299 33.3443 24.8943 33.3862 24.7699 33.4375C24.4964 33.5503 24.4581 33.5614 24.2979 33.5742C24.2291 33.5797 24.1903 33.6127 24.212 33.6475C24.2337 33.6824 24.1732 33.7167 24.0777 33.7239C23.9822 33.7311 23.8636 33.792 23.8141 33.8592C23.7647 33.9265 23.698 33.9554 23.666 33.9235C23.6339 33.8915 23.572 33.9288 23.5284 34.0063C23.4848 34.0839 23.4136 34.1254 23.3702 34.0987C23.3267 34.072 23.2477 34.0862 23.1943 34.1302C23.0171 34.2766 21.9747 34.6323 21.8318 34.5952C21.7544 34.5751 21.7113 34.5913 21.7361 34.6311C21.7918 34.7209 21.3679 34.7253 21.2274 34.6366C21.095 34.5529 21.358 34.3008 21.5964 34.283C21.6866 34.2762 21.754 34.237 21.746 34.1959C21.738 34.1548 21.9846 33.9921 22.2939 33.8343C22.6033 33.6765 22.8745 33.5234 22.8966 33.4939C22.9297 33.4497 23.5859 33.0861 24.8667 32.402C25.1064 32.274 25.0453 32.0648 24.7682 32.0648C24.6581 32.0648 24.4541 32.1177 24.3148 32.1824C24.1756 32.247 23.8628 32.3534 23.6197 32.4188C23.3766 32.4843 22.8524 32.6319 22.4546 32.7467C21.6065 32.9918 21.2252 33.0747 20.4027 33.1933C19.8916 33.267 19.7494 33.2609 19.4917 33.1536C18.9837 32.9424 19.1232 32.844 20.5262 32.4241C20.8798 32.3183 21.1871 32.2256 21.2092 32.218C21.2313 32.2105 21.2855 32.1948 21.3297 32.1831C21.3739 32.1713 21.6632 32.089 21.9725 32.0001C22.2819 31.9111 22.7338 31.7953 22.9769 31.7427C23.22 31.69 23.4911 31.62 23.5795 31.5869C23.6679 31.5539 23.8628 31.5447 24.0128 31.5666C24.2034 31.5946 24.2684 31.5793 24.229 31.5158C24.198 31.4659 24.2083 31.4251 24.2521 31.4251C24.2957 31.4251 24.3868 31.3699 24.4545 31.3025C24.5653 31.1923 24.5641 31.1639 24.4425 31.0226C24.3056 30.8635 24.0215 30.8055 24.0215 30.9366C24.0215 30.9757 23.904 31.0251 23.7603 31.0463C23.6166 31.0675 23.0834 31.1809 22.5752 31.2984C22.0669 31.4158 21.5427 31.5277 21.4101 31.5471C21.2775 31.5665 20.9521 31.6159 20.6869 31.6569C19.8098 31.7925 18.7184 31.7523 18.7184 31.5844C18.7184 31.4851 19.3443 31.2637 19.4793 31.3153C19.5469 31.3412 19.6022 31.3224 19.6022 31.2737C19.6022 31.225 19.6293 31.1909 19.6625 31.1979C19.6957 31.2049 19.777 31.1889 19.8433 31.1623C20.1132 31.0541 20.5958 30.954 20.6593 30.9931C20.6966 31.0159 20.7271 31.0014 20.7271 30.9606C20.7271 30.9198 20.8627 30.8652 21.0284 30.8393C21.1942 30.8134 21.6009 30.7137 21.9324 30.6179C22.2638 30.5222 22.6708 30.4269 22.8368 30.4062C23.0028 30.3856 23.1586 30.3365 23.183 30.2971C23.2074 30.2578 23.3449 30.2256 23.4886 30.2256C23.8878 30.2256 24.0525 30.0684 23.983 29.7535L23.9255 29.4931L23.5115 29.5476C23.2838 29.5777 23.063 29.6345 23.0211 29.674C22.9792 29.7135 22.8095 29.7459 22.6442 29.7459C22.4788 29.7459 22.3212 29.7818 22.2939 29.8258C22.2666 29.8698 22.1374 29.9058 22.0068 29.9058C21.8763 29.9058 21.7067 29.9406 21.6299 29.9831C21.4208 30.0991 20.0669 30.3092 19.1919 30.3615C18.5974 30.3969 18.4049 30.3832 18.3541 30.3013C18.3156 30.2392 18.3245 30.183 18.3757 30.1661C18.4239 30.1501 18.5524 30.0548 18.6614 29.9542C18.8841 29.7488 20.1899 29.3775 22.2136 28.9443C23.1358 28.7469 23.3323 28.7019 23.7974 28.5824C24.0753 28.5109 24.3325 28.4 24.3689 28.3359C24.4092 28.2651 24.5035 28.2362 24.6099 28.2623C24.7061 28.2858 24.7399 28.2845 24.6851 28.2593C24.609 28.2245 24.6137 28.1854 24.7051 28.0944C24.771 28.0288 24.8249 27.9506 24.8249 27.9205C24.8249 27.8189 24.3859 27.6834 23.9176 27.6404C23.3251 27.586 22.1534 27.2032 22.1995 27.0791C22.2183 27.0285 22.2743 26.9961 22.3241 27.0071C22.3738 27.0181 22.4145 26.9968 22.4145 26.9599C22.4145 26.923 22.6672 26.8453 22.9761 26.7873C23.405 26.7068 23.9034 26.6978 25.0853 26.7491C27.2901 26.8449 27.798 26.8521 27.7575 26.7868C27.7157 26.7194 28.7217 26.28 28.9129 26.2822C28.9847 26.283 29.1603 26.1825 29.3033 26.0591C29.4463 25.9355 29.7455 25.7806 29.9682 25.7148C30.1909 25.6489 30.429 25.5395 30.4973 25.4714C30.5657 25.4034 30.6865 25.3478 30.7658 25.3478C30.845 25.3478 31.0051 25.2732 31.1216 25.182C31.238 25.0909 31.3333 25.0378 31.3333 25.0642C31.3333 25.0905 31.4417 25.0562 31.5743 24.988C31.7069 24.9197 31.8154 24.825 31.8154 24.7774C31.8154 24.7299 31.8715 24.7124 31.9401 24.7386C32.0116 24.7659 32.0438 24.7525 32.0157 24.7072C31.9887 24.6637 32.0044 24.6281 32.0508 24.6281C32.1295 24.6281 32.3365 24.4801 32.5819 24.2483C32.6402 24.1933 32.7265 24.1483 32.7739 24.1483C32.8212 24.1483 32.8599 24.1123 32.8599 24.0684C32.8599 24.0244 32.8981 23.9884 32.9448 23.9884C32.9915 23.9884 33.252 23.8094 33.5238 23.5905C33.8744 23.3081 34.0361 23.221 34.0805 23.2906C34.1296 23.3675 34.1433 23.3671 34.1443 23.289C34.1467 23.0942 34.8974 22.4699 35.1298 22.4695C35.3541 22.4691 35.4338 22.35 35.2506 22.2892C35.1911 22.2695 35.232 22.2126 35.351 22.1495C35.4613 22.091 35.5957 21.986 35.6495 21.9163C35.7033 21.8465 35.7486 21.8219 35.7499 21.8618C35.7514 21.9016 35.8339 21.8453 35.9333 21.7367C36.0327 21.6282 36.4214 21.2897 36.7971 20.9847C37.1727 20.6796 37.4921 20.4029 37.5068 20.37C37.5216 20.337 37.5848 20.31 37.6474 20.31C37.7101 20.31 37.7613 20.2617 37.7613 20.2026C37.7613 20.1436 37.8856 20.0287 38.0376 19.9472C38.1895 19.8657 38.297 19.7719 38.2764 19.7387C38.2557 19.7055 38.3212 19.6346 38.4219 19.5813C38.5226 19.5279 38.6446 19.4306 38.6932 19.3652C38.7467 19.2929 38.8227 19.2714 38.8864 19.3106C38.9548 19.3527 38.9719 19.3438 38.9354 19.2851C38.9046 19.2355 38.9442 19.0966 39.0234 18.9764C39.1472 18.7884 39.1673 18.5726 39.1667 17.4348C39.1661 16.3139 39.1376 16.002 38.98 15.3922C38.7644 14.5581 38.1563 13.2599 37.6956 12.6499C36.1842 10.6486 33.6584 8.98053 31.0521 8.26236C30.168 8.01871 28.4151 7.92363 27.4815 8.06861C25.795 8.33065 24.0022 9.26584 22.5326 10.6503C21.6113 11.5182 21.0721 12.1889 20.1099 13.6633C20.0991 13.6801 19.7544 13.3879 19.344 13.014C16.8031 10.6993 13.5028 8.59774 11.1577 7.80129C9.77424 7.33142 7.91486 7.10096 6.86493 7.2692ZM29.2427 26.2284C29.0824 26.3269 29.2017 26.4189 29.369 26.3258C29.4443 26.2839 29.4724 26.2289 29.4315 26.2037C29.3905 26.1786 29.3056 26.1897 29.2427 26.2284ZM20.0318 31.4358C20.1381 31.4973 20.2052 31.4967 20.2688 31.4334C20.3335 31.3691 20.2933 31.3458 20.1205 31.3475C19.9127 31.3497 19.9018 31.3606 20.0318 31.4358ZM23.5394 33.3455C23.4322 33.4155 23.4322 33.4329 23.5394 33.503C23.6585 33.5808 24.0215 33.6161 24.0215 33.5499C24.0215 33.4939 23.7735 33.2642 23.7144 33.2655C23.6844 33.2662 23.6056 33.3022 23.5394 33.3455Z" fill="#F45049"/>
<path d="M40.8005 32V30.0976H47.5819C48.1041 30.0976 48.5518 29.9783 48.9248 29.7395C49.2978 29.4859 49.5887 29.1651 49.7976 28.7771C50.0065 28.3892 50.111 27.9789 50.111 27.5462C50.111 27.0986 50.0065 26.6883 49.7976 26.3152C49.6037 25.9273 49.3202 25.6214 48.9471 25.3976C48.5891 25.1589 48.1489 25.0395 47.6267 25.0395H44.6724C43.7921 25.0395 43.0162 24.8605 42.3448 24.5024C41.6733 24.1294 41.1437 23.6221 40.7557 22.9805C40.3827 22.324 40.1962 21.5854 40.1962 20.7648C40.1962 19.9292 40.3752 19.1757 40.7333 18.5043C41.1064 17.8329 41.6211 17.3032 42.2776 16.9152C42.9491 16.5273 43.7175 16.3333 44.5829 16.3333H51.23V18.2357H44.7843C44.2919 18.2357 43.8592 18.3551 43.4862 18.5938C43.1132 18.8176 42.8297 19.116 42.6357 19.489C42.4418 19.8471 42.3448 20.2351 42.3448 20.6529C42.3448 21.0557 42.4343 21.4437 42.6133 21.8167C42.8073 22.1748 43.0833 22.4657 43.4414 22.6895C43.8144 22.9133 44.2397 23.0252 44.7171 23.0252H47.7386C48.6786 23.0252 49.4843 23.2117 50.1557 23.5848C50.8271 23.9578 51.3419 24.4651 51.7 25.1067C52.0581 25.7483 52.2371 26.4794 52.2371 27.3C52.2371 28.2102 52.0506 29.0233 51.6776 29.7395C51.3195 30.4408 50.8048 30.9929 50.1333 31.3957C49.4619 31.7986 48.6935 32 47.8281 32H40.8005ZM59.5771 32.2686C58.4729 32.2686 57.518 32.0075 56.7123 31.4852C55.9066 30.9481 55.2874 30.2244 54.8547 29.3143C54.422 28.4041 54.2056 27.397 54.2056 26.2929C54.2056 25.1738 54.4444 24.1667 54.9218 23.2714C55.3993 22.3613 56.0856 21.6451 56.9809 21.1229C57.8761 20.5857 58.9504 20.3171 60.2037 20.3171C61.4123 20.3171 62.4493 20.5783 63.3147 21.1005C64.1801 21.6227 64.844 22.3314 65.3066 23.2267C65.784 24.1219 66.0228 25.1216 66.0228 26.2257V32H63.9413V29.6724H63.8966C63.6728 30.1051 63.3669 30.5229 62.979 30.9257C62.6059 31.3137 62.1359 31.6344 61.569 31.8881C61.002 32.1417 60.338 32.2686 59.5771 32.2686ZM60.1142 30.5005C60.8602 30.5005 61.5167 30.3214 62.0837 29.9633C62.6656 29.5903 63.1132 29.083 63.4266 28.4414C63.7548 27.7849 63.919 27.0538 63.919 26.2481C63.919 25.4573 63.7623 24.7486 63.449 24.1219C63.1505 23.4952 62.7178 23.0029 62.1509 22.6448C61.5839 22.2717 60.9199 22.0852 60.159 22.0852C59.3532 22.0852 58.6594 22.2717 58.0775 22.6448C57.5105 23.0178 57.0704 23.5251 56.7571 24.1667C56.4586 24.7933 56.3094 25.5095 56.3094 26.3152C56.3094 27.0911 56.4586 27.7998 56.7571 28.4414C57.0555 29.0681 57.4882 29.5679 58.0551 29.941C58.6221 30.314 59.3085 30.5005 60.1142 30.5005ZM69.3012 32V15.6619H71.3603V32H69.3012ZM74.6342 32V20.5857H76.7156V32H74.6342ZM75.6861 18.7729C75.3131 18.7729 74.9848 18.6386 74.7013 18.37C74.4328 18.0865 74.2985 17.7583 74.2985 17.3852C74.2985 17.0122 74.4328 16.6914 74.7013 16.4229C74.9848 16.1394 75.3131 15.9976 75.6861 15.9976C76.0591 15.9976 76.3799 16.1394 76.6485 16.4229C76.932 16.6914 77.0737 17.0122 77.0737 17.3852C77.0737 17.7583 76.932 18.0865 76.6485 18.37C76.3799 18.6386 76.0591 18.7729 75.6861 18.7729ZM79.9671 32V25.3976C79.9671 24.383 80.191 23.4952 80.6386 22.7343C81.1011 21.9733 81.7352 21.384 82.541 20.9662C83.3467 20.5335 84.2643 20.3171 85.2938 20.3171C86.3383 20.3171 87.2559 20.5335 88.0467 20.9662C88.8524 21.384 89.4791 21.9733 89.9267 22.7343C90.3892 23.4952 90.6205 24.383 90.6205 25.3976V32H88.5614V25.42C88.5614 24.7337 88.4048 24.1443 88.0914 23.6519C87.793 23.1446 87.3902 22.7567 86.8829 22.4881C86.3905 22.2195 85.8608 22.0852 85.2938 22.0852C84.7268 22.0852 84.1897 22.2195 83.6824 22.4881C83.19 22.7567 82.7871 23.1446 82.4738 23.6519C82.1754 24.1443 82.0262 24.7337 82.0262 25.42V32H79.9671ZM95.613 36.5433V34.7752H101.208C101.76 34.7752 102.186 34.6111 102.484 34.2829C102.797 33.9546 102.954 33.5219 102.954 32.9848V29.8514H102.909C102.626 30.2841 102.283 30.6721 101.88 31.0152C101.477 31.3584 101.014 31.6344 100.492 31.8433C99.9698 32.0373 99.3805 32.1343 98.724 32.1343C97.6497 32.1343 96.7022 31.8881 95.8816 31.3957C95.0609 30.8884 94.4194 30.1946 93.9568 29.3143C93.4943 28.419 93.263 27.397 93.263 26.2481C93.263 25.129 93.4943 24.1219 93.9568 23.2267C94.4194 22.3314 95.0833 21.6227 95.9487 21.1005C96.829 20.5783 97.8884 20.3171 99.1268 20.3171C100.32 20.3171 101.357 20.5708 102.238 21.0781C103.118 21.5854 103.797 22.2941 104.274 23.2043C104.767 24.0995 105.013 25.1514 105.013 26.36V33.119C105.013 34.1635 104.707 34.9916 104.095 35.6033C103.484 36.23 102.648 36.5433 101.589 36.5433H95.613ZM99.1044 30.3662C99.8654 30.3662 100.529 30.1871 101.096 29.829C101.678 29.471 102.126 28.986 102.439 28.3743C102.767 27.7476 102.932 27.0463 102.932 26.2705C102.932 25.4797 102.775 24.771 102.462 24.1443C102.148 23.5176 101.708 23.0252 101.141 22.6671C100.574 22.2941 99.8952 22.1076 99.1044 22.1076C98.3286 22.1076 97.6571 22.2941 97.0902 22.6671C96.5381 23.0252 96.1054 23.5251 95.7921 24.1667C95.4936 24.7933 95.3444 25.5021 95.3444 26.2929C95.3444 27.0389 95.4936 27.7252 95.7921 28.3519C96.1054 28.9637 96.5381 29.456 97.0902 29.829C97.6571 30.1871 98.3286 30.3662 99.1044 30.3662Z" fill="#FF9494"/>
<path d="M116.434 36.8567C115.703 36.8567 115.054 36.7224 114.487 36.4538C113.935 36.1852 113.502 35.7824 113.189 35.2452C112.875 34.7081 112.719 34.0516 112.719 33.2757C112.719 32.5744 112.86 31.806 113.144 30.9705C113.427 30.1349 113.942 29.2621 114.688 28.3519C115.434 27.4417 116.509 26.539 117.911 25.6438V18.2357H114.532V16.3333H120.037V32.9176C120.037 33.7233 119.888 34.4171 119.59 34.999C119.306 35.5959 118.896 36.051 118.359 36.3643C117.822 36.6925 117.18 36.8567 116.434 36.8567ZM116.277 34.9319C116.591 34.9319 116.867 34.8573 117.105 34.7081C117.359 34.5738 117.553 34.3575 117.687 34.059C117.822 33.7606 117.889 33.3951 117.889 32.9624V27.8595C116.919 28.6056 116.21 29.3143 115.763 29.9857C115.315 30.6422 115.031 31.239 114.912 31.7762C114.793 32.2984 114.733 32.7237 114.733 33.0519C114.733 33.6786 114.89 34.1486 115.203 34.4619C115.516 34.7752 115.874 34.9319 116.277 34.9319ZM128.119 32.2686C127.015 32.2686 126.06 32.0075 125.254 31.4852C124.448 30.9481 123.829 30.2244 123.396 29.3143C122.964 28.4041 122.747 27.397 122.747 26.2929C122.747 25.1738 122.986 24.1667 123.463 23.2714C123.941 22.3613 124.627 21.6451 125.523 21.1229C126.418 20.5857 127.492 20.3171 128.745 20.3171C129.954 20.3171 130.991 20.5783 131.856 21.1005C132.722 21.6227 133.386 22.3314 133.848 23.2267C134.326 24.1219 134.564 25.1216 134.564 26.2257V32H132.483V29.6724H132.438C132.214 30.1051 131.909 30.5229 131.521 30.9257C131.148 31.3137 130.678 31.6344 130.111 31.8881C129.544 32.1417 128.88 32.2686 128.119 32.2686ZM128.656 30.5005C129.402 30.5005 130.058 30.3214 130.625 29.9633C131.207 29.5903 131.655 29.083 131.968 28.4414C132.297 27.7849 132.461 27.0538 132.461 26.2481C132.461 25.4573 132.304 24.7486 131.991 24.1219C131.692 23.4952 131.26 23.0029 130.693 22.6448C130.126 22.2717 129.462 22.0852 128.701 22.0852C127.895 22.0852 127.201 22.2717 126.619 22.6448C126.052 23.0178 125.612 23.5251 125.299 24.1667C125 24.7933 124.851 25.5095 124.851 26.3152C124.851 27.0911 125 27.7998 125.299 28.4414C125.597 29.0681 126.03 29.5679 126.597 29.941C127.164 30.314 127.85 30.5005 128.656 30.5005ZM139.566 36.5433V34.7752H145.161C145.714 34.7752 146.139 34.6111 146.437 34.2829C146.751 33.9546 146.907 33.5219 146.907 32.9848V29.8514H146.862C146.579 30.2841 146.236 30.6721 145.833 31.0152C145.43 31.3584 144.967 31.6344 144.445 31.8433C143.923 32.0373 143.334 32.1343 142.677 32.1343C141.603 32.1343 140.655 31.8881 139.835 31.3957C139.014 30.8884 138.373 30.1946 137.91 29.3143C137.447 28.419 137.216 27.397 137.216 26.2481C137.216 25.129 137.447 24.1219 137.91 23.2267C138.373 22.3314 139.037 21.6227 139.902 21.1005C140.782 20.5783 141.842 20.3171 143.08 20.3171C144.274 20.3171 145.311 20.5708 146.191 21.0781C147.071 21.5854 147.75 22.2941 148.228 23.2043C148.72 24.0995 148.966 25.1514 148.966 26.36V33.119C148.966 34.1635 148.66 34.9916 148.049 35.6033C147.437 36.23 146.601 36.5433 145.542 36.5433H139.566ZM143.058 30.3662C143.819 30.3662 144.483 30.1871 145.05 29.829C145.631 29.471 146.079 28.986 146.392 28.3743C146.721 27.7476 146.885 27.0463 146.885 26.2705C146.885 25.4797 146.728 24.771 146.415 24.1443C146.101 23.5176 145.661 23.0252 145.094 22.6671C144.527 22.2941 143.848 22.1076 143.058 22.1076C142.282 22.1076 141.61 22.2941 141.043 22.6671C140.491 23.0252 140.059 23.5251 139.745 24.1667C139.447 24.7933 139.298 25.5021 139.298 26.2929C139.298 27.0389 139.447 27.7252 139.745 28.3519C140.059 28.9637 140.491 29.456 141.043 29.829C141.61 30.1871 142.282 30.3662 143.058 30.3662ZM156.904 32.2686C155.799 32.2686 154.845 32.0075 154.039 31.4852C153.233 30.9481 152.614 30.2244 152.181 29.3143C151.749 28.4041 151.532 27.397 151.532 26.2929C151.532 25.1738 151.771 24.1667 152.248 23.2714C152.726 22.3613 153.412 21.6451 154.307 21.1229C155.203 20.5857 156.277 20.3171 157.53 20.3171C158.739 20.3171 159.776 20.5783 160.641 21.1005C161.507 21.6227 162.171 22.3314 162.633 23.2267C163.111 24.1219 163.349 25.1216 163.349 26.2257V32H161.268V29.6724H161.223C160.999 30.1051 160.693 30.5229 160.306 30.9257C159.932 31.3137 159.462 31.6344 158.896 31.8881C158.329 32.1417 157.665 32.2686 156.904 32.2686ZM157.441 30.5005C158.187 30.5005 158.843 30.3214 159.41 29.9633C159.992 29.5903 160.44 29.083 160.753 28.4414C161.081 27.7849 161.246 27.0538 161.246 26.2481C161.246 25.4573 161.089 24.7486 160.776 24.1219C160.477 23.4952 160.044 23.0029 159.477 22.6448C158.91 22.2717 158.246 22.0852 157.486 22.0852C156.68 22.0852 155.986 22.2717 155.404 22.6448C154.837 23.0178 154.397 23.5251 154.084 24.1667C153.785 24.7933 153.636 25.5095 153.636 26.3152C153.636 27.0911 153.785 27.7998 154.084 28.4414C154.382 29.0681 154.815 29.5679 155.382 29.941C155.949 30.314 156.635 30.5005 157.441 30.5005Z" fill="#F45049"/>
</svg>
